<?xml version="1.0" standalone="no"?>
<!DOCTYPE svg PUBLIC "-//W3C//DTD SVG 20010904//EN"
 "http://www.w3.org/TR/2001/REC-SVG-20010904/DTD/svg10.dtd">
<svg version="1.0" xmlns="http://www.w3.org/2000/svg"
 width="505.000000pt" height="226.000000pt" viewBox="0 0 505.000000 226.000000"
 preserveAspectRatio="xMidYMid meet">

<g transform="translate(0.000000,226.000000) scale(0.100000,-0.100000)"
fill="#000000" stroke="none">
<path d="M0 2241 c0 -11 9 -21 23 -24 12 -3 83 -31 157 -62 74 -31 176 -71
225 -90 50 -19 135 -52 190 -73 515 -203 637 -250 792 -308 349 -130 552 -204
873 -318 177 -63 549 -175 675 -204 216 -49 291 -63 440 -83 275 -35 480 -9
689 86 245 112 462 326 854 844 117 153 132 178 132 212 l0 39 -2525 0 c-2466
0 -2525 0 -2525 -19z"/>
</g>
</svg>
