<?xml version="1.0" encoding="UTF-8" standalone="no"?>
<!DOCTYPE svg PUBLIC "-//W3C//DTD SVG 1.1//EN" "http://www.w3.org/Graphics/SVG/1.1/DTD/svg11.dtd">
<svg xmlns="http://www.w3.org/2000/svg" version="1.1" viewBox="0.00 0.00 345.00 65.00">
<path fill="#000000" d="
  M 318.89 29.15
  L 319.86 33.93
  A 0.40 0.40 0.0 0 1 319.49 34.41
  L 319.09 34.44
  A 0.70 0.70 0.0 0 1 318.34 33.78
  Q 318.03 27.96 313.24 24.53
  Q 306.68 19.83 299.56 23.85
  Q 298.24 24.59 299.74 24.82
  Q 300.07 24.87 300.37 25.03
  Q 301.01 25.38 300.48 25.87
  Q 300.04 26.27 299.45 26.19
  Q 298.01 25.98 296.57 25.97
  Q 295.93 25.97 295.98 25.33
  Q 296.15 23.47 296.91 21.84
  Q 297.44 20.71 297.90 21.88
  Q 298.05 22.26 298.00 22.68
  Q 297.94 23.28 298.45 22.97
  Q 305.07 19.05 311.40 21.81
  Q 312.04 22.08 311.90 21.40
  Q 311.09 17.19 313.19 14.21
  Q 313.55 13.70 313.32 13.12
  Q 310.82 6.78 304.92 7.49
  C 300.89 7.97 299.34 11.49 297.75 14.69
  A 0.62 0.61 -66.2 0 1 296.98 14.99
  L 296.69 14.88
  Q 296.47 14.79 296.56 14.57
  C 298.69 8.96 303.08 3.99 309.41 6.82
  Q 312.13 8.03 314.62 12.51
  Q 317.51 17.69 320.47 22.65
  A 0.68 0.68 0.0 0 0 321.17 22.97
  L 321.58 22.90
  A 0.34 0.34 0.0 0 0 321.82 22.40
  L 317.10 14.16
  Q 316.47 13.04 317.69 13.45
  C 325.93 16.18 328.62 25.10 323.72 32.35
  A 0.74 0.74 0.0 0 1 322.52 32.38
  Q 321.03 30.44 319.20 28.96
  Q 318.79 28.63 318.89 29.15
  Z"
/>
<path fill="#000000" d="
  M 96.03 10.62
  C 100.31 9.53 104.49 12.21 107.36 15.09
  Q 108.27 15.99 107.00 15.85
  Q 99.88 15.09 94.84 20.16
  Q 84.42 30.65 84.30 45.83
  C 84.28 49.45 85.90 53.64 90.18 53.43
  C 96.65 53.10 102.77 46.49 105.52 41.16
  Q 111.66 29.24 110.29 15.96
  Q 110.22 15.33 110.81 15.56
  C 113.69 16.63 114.88 20.75 114.77 23.56
  Q 114.12 40.95 100.74 51.54
  C 91.23 59.08 77.20 58.63 77.67 42.97
  Q 78.02 31.63 84.21 21.05
  C 86.81 16.60 90.83 11.95 96.03 10.62
  Z"
/>
<path fill="#000000" d="
  M 157.75 49.60
  Q 157.40 51.16 158.97 50.85
  L 171.01 48.43
  Q 172.97 48.04 173.43 49.99
  L 174.11 52.92
  Q 174.57 54.89 172.55 54.80
  Q 164.49 54.42 156.56 55.99
  C 154.07 56.49 151.76 53.48 150.69 51.59
  Q 150.39 51.07 150.65 50.53
  Q 159.88 31.08 164.24 11.38
  Q 164.71 9.23 166.52 10.49
  L 170.00 12.93
  Q 171.80 14.19 170.93 16.21
  Q 164.43 31.32 158.13 48.30
  Q 157.90 48.93 157.75 49.60
  Z"
/>
<path fill="#000000" d="
  M 25.22 28.38
  L 31.57 27.83
  Q 34.15 27.61 35.09 30.02
  Q 35.26 30.47 35.44 30.91
  Q 36.37 33.33 33.79 33.19
  Q 28.68 32.91 22.50 34.19
  Q 21.97 34.30 21.75 34.79
  Q 18.28 42.54 16.22 50.74
  A 0.50 0.50 0.0 0 0 16.80 51.35
  Q 25.63 49.50 34.12 48.91
  Q 35.47 48.82 35.79 50.13
  L 36.54 53.20
  Q 36.98 54.97 35.16 54.85
  Q 24.74 54.18 14.50 56.02
  A 1.63 1.61 -34.5 0 1 13.38 55.82
  Q 11.02 54.40 9.37 51.78
  A 1.07 1.05 -50.2 0 1 9.29 50.81
  L 15.83 34.84
  Q 16.08 34.22 15.47 33.95
  Q 14.02 33.31 13.03 32.10
  A 0.67 0.66 -28.3 0 1 13.35 31.05
  L 17.27 29.79
  Q 17.91 29.58 18.11 28.94
  L 21.56 17.86
  Q 21.77 17.20 21.09 17.09
  Q 16.80 16.44 17.54 12.29
  Q 17.65 11.63 18.32 11.65
  Q 29.84 11.98 40.50 10.48
  A 3.72 3.71 70.3 0 1 44.19 12.23
  Q 44.31 12.45 45.02 13.62
  Q 46.30 15.74 43.84 15.53
  Q 37.72 15.01 30.63 16.32
  Q 30.06 16.43 29.81 16.96
  L 24.80 27.79
  Q 24.50 28.45 25.22 28.38
  Z"
/>
<path fill="#000000" d="
  M 72.16 12.70
  Q 70.54 12.07 68.86 12.56
  C 63.42 14.14 60.40 18.31 57.62 23.12
  Q 52.03 32.78 52.07 43.23
  C 52.09 45.87 53.86 53.83 58.26 51.58
  Q 65.04 48.11 70.42 42.70
  Q 70.60 42.52 70.80 42.67
  L 71.36 43.09
  A 0.34 0.33 36.9 0 1 71.43 43.55
  Q 66.31 50.65 59.28 55.56
  A 2.14 2.13 28.7 0 1 57.97 55.94
  Q 46.77 55.36 44.84 45.60
  C 42.37 33.10 48.95 19.54 59.39 13.24
  C 63.40 10.83 71.81 8.68 75.71 12.60
  C 79.03 15.94 76.58 21.48 73.82 24.49
  Q 72.89 25.51 71.74 24.75
  Q 70.54 23.95 69.65 22.71
  Q 68.89 21.63 69.88 20.76
  C 71.26 19.53 75.62 14.05 72.16 12.70
  Z"
/>
<path fill="#000000" d="
  M 136.78 36.01
  L 126.19 35.47
  Q 125.54 35.44 125.21 36.00
  Q 119.94 44.95 118.67 54.72
  Q 118.51 55.95 117.38 55.44
  L 115.17 54.46
  Q 113.98 53.93 113.95 52.63
  Q 113.91 50.38 114.97 47.97
  Q 117.70 41.80 120.92 35.90
  A 0.53 0.52 8.3 0 0 120.35 35.14
  Q 119.14 35.39 117.94 35.22
  Q 116.36 35.01 117.78 34.27
  Q 119.76 33.23 122.15 32.93
  Q 122.75 32.86 123.08 32.34
  C 128.08 24.34 133.94 16.85 141.52 12.11
  Q 142.03 11.79 142.32 11.28
  Q 142.41 11.12 142.42 10.94
  Q 142.46 10.49 142.90 10.58
  Q 146.70 11.38 149.79 13.40
  A 0.79 0.79 0.0 0 1 150.08 14.38
  Q 147.56 20.09 146.12 26.03
  Q 142.76 39.87 143.11 54.93
  Q 143.15 56.25 141.88 55.87
  L 137.81 54.65
  A 2.12 2.11 6.8 0 1 136.31 52.76
  Q 135.82 44.81 137.28 36.64
  Q 137.39 36.04 136.78 36.01
  Z
  M 138.02 31.24
  L 141.18 17.72
  A 0.30 0.29 -8.9 0 0 140.74 17.40
  C 135.25 20.73 130.68 26.67 127.47 32.02
  Q 127.39 32.15 127.54 32.14
  L 137.51 31.67
  Q 137.93 31.65 138.02 31.24
  Z"
/>
<path fill="#000000" d="
  M 200.81 35.24
  L 198.46 35.24
  Q 196.50 35.24 198.20 34.26
  Q 200.11 33.17 202.27 32.96
  Q 203.07 32.89 203.49 32.20
  C 208.07 24.61 214.21 16.89 221.77 12.11
  C 222.21 11.83 222.50 11.50 222.70 11.03
  Q 222.90 10.55 223.41 10.65
  Q 226.83 11.36 230.05 13.39
  A 0.83 0.82 28.7 0 1 230.36 14.44
  Q 227.75 20.14 226.29 26.45
  Q 222.84 41.40 223.56 54.52
  Q 223.66 56.26 221.99 55.77
  L 218.03 54.62
  A 2.08 2.06 7.1 0 1 216.54 52.72
  Q 216.19 44.77 217.48 36.62
  Q 217.58 36.03 216.98 36.00
  L 206.30 35.47
  Q 205.77 35.45 205.51 35.90
  Q 200.20 45.04 198.94 54.81
  Q 198.79 55.94 197.75 55.48
  L 195.28 54.40
  Q 194.00 53.84 194.14 52.45
  Q 194.37 50.01 195.36 47.71
  Q 197.98 41.62 201.22 35.95
  Q 201.63 35.24 200.81 35.24
  Z
  M 218.29 31.23
  L 221.26 18.50
  Q 221.66 16.76 220.23 17.82
  Q 212.78 23.29 207.87 31.97
  Q 207.78 32.13 207.97 32.12
  L 217.76 31.67
  Q 218.20 31.65 218.29 31.23
  Z"
/>
<path fill="#000000" d="
  M 248.09 14.77
  Q 241.67 18.03 239.40 25.06
  Q 238.80 26.91 237.44 25.53
  L 236.33 24.40
  Q 234.78 22.83 235.53 20.75
  C 238.93 11.26 250.67 9.08 259.40 11.23
  C 270.92 14.05 275.55 24.18 272.55 35.44
  C 269.35 47.41 258.43 57.36 245.61 55.57
  Q 239.37 54.70 236.27 49.53
  Q 235.87 48.86 236.17 48.14
  Q 243.01 31.50 248.60 15.21
  Q 248.89 14.37 248.09 14.77
  Z
  M 256.26 17.79
  Q 250.67 27.87 245.63 39.88
  Q 243.61 44.68 242.33 49.57
  Q 242.05 50.62 243.13 50.78
  C 257.15 52.84 267.13 41.09 268.67 27.96
  C 269.97 16.90 261.75 11.34 251.56 13.70
  Q 250.13 14.04 251.51 14.54
  Q 253.90 15.41 256.09 17.01
  Q 256.52 17.33 256.26 17.79
  Z"
/>
<path fill="#000000" d="
  M 192.23 27.67
  Q 187.53 40.41 185.79 53.24
  Q 185.70 53.96 185.78 54.66
  Q 186.05 56.91 184.22 55.58
  Q 179.48 52.14 180.65 45.74
  Q 183.25 31.54 189.42 17.95
  Q 190.70 15.14 192.32 12.61
  A 1.55 1.54 -59.6 0 1 194.34 12.08
  L 197.98 14.01
  Q 199.33 14.72 198.38 15.92
  Q 194.99 20.19 192.23 27.67
  Z"
/>
<path fill="#000000" d="
  M 313.25 46.01
  Q 308.43 49.03 303.17 47.83
  Q 294.28 45.80 292.42 36.26
  Q 292.26 35.47 291.74 36.08
  C 289.31 38.90 287.17 40.30 283.23 40.22
  Q 282.77 40.22 282.50 40.59
  Q 280.15 43.85 280.42 46.72
  C 281.00 52.76 286.46 53.76 291.62 53.15
  Q 292.34 53.06 292.45 53.78
  L 292.49 54.05
  A 0.32 0.31 -6.8 0 1 292.20 54.41
  C 287.64 54.80 282.97 54.90 280.29 50.43
  Q 277.83 46.32 280.23 42.01
  Q 283.59 35.99 287.24 29.51
  A 0.74 0.73 -53.2 0 0 287.12 28.63
  L 286.91 28.41
  A 0.28 0.28 0.0 0 0 286.47 28.47
  L 281.64 36.68
  Q 281.08 37.63 280.83 36.56
  C 280.39 34.75 280.31 32.69 280.86 30.86
  Q 283.49 22.02 293.35 21.75
  Q 295.37 21.70 294.46 23.50
  Q 294.13 24.17 293.99 24.84
  Q 293.17 28.70 292.78 33.89
  Q 292.75 34.21 293.00 34.41
  L 293.30 34.65
  Q 293.58 34.88 293.63 35.24
  C 294.81 44.99 304.56 49.92 312.99 44.67
  Q 313.83 44.15 312.85 44.10
  Q 312.19 44.07 311.67 43.65
  Q 310.86 43.02 311.87 42.87
  Q 313.47 42.64 315.20 42.79
  A 0.92 0.91 9.3 0 1 316.01 43.91
  L 315.22 47.19
  A 0.57 0.57 0.0 0 0 315.63 47.88
  Q 319.52 48.91 321.37 52.71
  Q 321.56 53.11 322.01 53.16
  Q 325.70 53.59 327.96 52.31
  C 331.97 50.05 332.67 45.38 330.14 41.63
  Q 329.10 40.07 328.44 38.35
  Q 328.37 38.16 328.53 38.05
  L 328.74 37.90
  A 0.60 0.60 0.0 0 1 329.60 38.09
  C 331.23 40.84 333.43 43.92 332.88 47.24
  C 331.96 52.71 327.66 54.74 322.33 54.55
  Q 316.02 54.32 309.88 54.61
  A 0.58 0.58 0.0 0 0 309.33 55.16
  L 309.31 55.46
  Q 309.30 55.74 309.58 55.74
  L 319.52 55.79
  Q 320.61 55.79 319.80 56.52
  C 313.12 62.53 303.31 60.50 300.10 52.04
  A 0.36 0.35 76.5 0 1 300.39 51.56
  Q 304.56 51.05 308.84 48.64
  C 310.24 47.85 311.76 47.54 313.35 47.56
  Q 313.98 47.57 314.00 46.94
  L 314.01 46.44
  Q 314.03 45.52 313.25 46.01
  Z"
/>
</svg>
