<?xml version="1.0" standalone="no"?>
<!DOCTYPE svg PUBLIC "-//W3C//DTD SVG 20010904//EN"
 "http://www.w3.org/TR/2001/REC-SVG-20010904/DTD/svg10.dtd">
<svg version="1.0" xmlns="http://www.w3.org/2000/svg"
 width="519.000000pt" height="143.000000pt" viewBox="0 0 519.000000 143.000000"
 preserveAspectRatio="xMidYMid meet">

<g transform="translate(0.000000,143.000000) scale(0.100000,-0.100000)"
fill="#000000" stroke="none">
<path d="M1505 1343 c-348 -55 -575 -334 -552 -678 12 -168 68 -296 182 -411
130 -131 296 -191 494 -181 167 8 298 65 412 177 75 74 127 162 160 270 33
106 33 274 0 380 -64 211 -229 370 -437 424 -64 17 -209 27 -259 19z m232
-199 c158 -54 262 -196 279 -386 19 -209 -78 -399 -244 -476 -52 -25 -68 -27
-182 -27 -114 0 -130 2 -181 26 -143 67 -230 202 -245 377 -26 306 170 525
453 507 39 -3 93 -12 120 -21z"/>
<path d="M2930 1344 c-99 -17 -145 -31 -220 -66 -226 -108 -365 -356 -345
-617 27 -357 312 -607 670 -588 251 14 456 161 548 395 25 65 31 95 35 190 l5
112 -347 0 -346 0 0 -85 0 -85 236 0 236 0 -7 -32 c-47 -217 -231 -340 -460
-307 -92 13 -163 47 -228 108 -188 178 -178 537 20 697 174 142 474 116 579
-50 l29 -45 123 -1 c67 0 122 3 122 6 0 26 -77 141 -130 194 -106 106 -245
165 -407 174 -49 2 -99 3 -113 0z"/>
<path d="M4320 1344 c-99 -17 -145 -31 -220 -66 -173 -83 -301 -253 -336 -449
-40 -222 39 -463 199 -604 68 -60 187 -119 283 -141 90 -19 259 -15 334 10
171 55 296 158 372 302 48 93 67 161 75 269 21 312 -170 583 -462 659 -63 16
-202 28 -245 20z m156 -185 c175 -32 301 -162 335 -344 23 -123 -4 -288 -64
-381 -36 -57 -111 -122 -175 -152 -52 -25 -68 -27 -182 -27 -121 0 -128 1
-191 32 -126 62 -208 184 -231 341 -49 338 191 589 508 531z"/>
<path d="M220 705 l0 -625 315 0 316 0 -3 82 -3 83 -212 3 -213 2 0 540 0 540
-100 0 -100 0 0 -625z"/>
</g>
</svg>
