<?xml version="1.0"?>
<svg width="505.00000000000006" height="226" xmlns="http://www.w3.org/2000/svg" xmlns:svg="http://www.w3.org/2000/svg" preserveAspectRatio="xMidYMid meet" version="1.0">

 <g class="layer">
  <title>Layer 1</title>
  <g fill="#000000" id="svg_1" transform="matrix(0.101183, 0, 0, -0.102467, 0.0118343, -3.00001)">
   <path d="m-19.77,-9.48c0,-11 9,-21 23,-24c12,-3 83,-31 157,-62c74,-31 176,-71 225,-90c50,-19 135,-52 190,-73c515,-203 637,-250 792,-308c349,-130 552,-204 873,-318c177,-63 549,-175 675,-204c216,-49 291,-63 440,-83c275,-35 480,-9 689,86c245,112 462,326 854,844c117,153 132,178 132,212l0,39l-2525,0c-2466,0 -2525,0 -2525,-19z" id="svg_2"/>
  </g>
 </g>
</svg>